<?xml version="1.0" encoding="utf-8"?>
<!-- Generator: Adobe Illustrator 21.0.2, SVG Export Plug-In . SVG Version: 6.00 Build 0)  -->
<svg version="1.1" id="Слой_1" xmlns="http://www.w3.org/2000/svg" xmlns:xlink="http://www.w3.org/1999/xlink" x="0px" y="0px"
	 viewBox="0 0 100 120" style="enable-background:new 0 0 100 120;" xml:space="preserve">
<style type="text/css">
	.st0{display:none;}
	.st1{display:inline;fill:none;}
	.st2{display:inline;}
	.st3{fill:#C6CA35;}
	.st4{fill:#142A8B;}
	.st5{fill:#C6CA34;}
	.st6{fill:none;}
	.st7{fill:#F4F6F7;}
	.st8{fill:#F3F6F6;}
	.st9{fill:#EAEEEF;}
	.st10{fill:#B04E6F;}
	.st11{fill:#EFA915;}
	.st12{fill:#E22D22;}
	.st13{fill:#E9781C;}
	.st14{fill:#E22C21;}
	.st15{fill:#BDC232;}
	.st16{fill:#B8BD20;}
	.st17{fill:#A32E56;}
	.st18{fill:#E97215;}
	.st19{fill:#9E224C;}
	.st20{fill:#9B1A47;}
	.st21{fill:#97123E;}
	.st22{fill:#FEFEFE;}
	.st23{fill:#FEFDFB;}
	.st24{fill:#FEFDFD;}
	.st25{fill:#FDFDFC;}
	.st26{fill:#FDFCFC;}
	.st27{fill:#FCF5EF;}
	.st28{fill:#EFA816;}
	.st29{fill:#E9791E;}
	.st30{fill:#FF9D00;}
	.st31{fill:#7383BF;}
	.st32{fill:#43B05C;}
</style>
<g class="st0">
	<rect x="0.9" y="8.9" class="st1" width="98.1" height="102.2"/>
	<g class="st2">
		<path class="st3" d="M83.9,29.6c0-5-3.7-9.6-8.5-10.5c-5.2-1-10.2,1.8-12.1,6.6c-1.6,4.3-0.7,8.1,2.4,11.4
			c0.2,0.2,0.5,0.4,0.6,0.7c0.1,0.5,0.1,0.9-0.4,1.2c-0.6,0.4-1.1,0.2-1.6-0.3c-1.7-1.7-2.9-3.7-3.4-6C59.1,25.4,63.6,18.4,71,17
			c6.8-1.3,13.7,3.4,14.9,10.3c0.8,4.4-0.4,8.2-3.5,11.4c-0.7,0.7-1.2,0.8-1.7,0.3c-0.5-0.5-0.4-1.1,0.2-1.8
			C83,34.7,83.9,32.6,83.9,29.6z"/>
		<path class="st4" d="M72.1,30.4c-0.7-0.7-0.8-1.3-0.2-1.9c0.6-0.6,1.8-0.7,2.5-0.2c0.8,0.6,0.8,0.9,0.2,2.1
			c0.7,0.3,1.1,0.1,1.4-0.7c0.4-1.2,1.5-1.7,2.4-1.5c0.8,0.2,1.1,0.9,0.7,1.7c-0.4,0.9-1.2,1.3-2.1,1.4c-0.7,0.1-0.9,0.4-1,1
			c-0.4,2-0.6,4-0.6,6c0,0.4,0,0.8-0.5,0.8c-0.5,0-0.4-0.5-0.4-0.8c0.2-2.1,0.2-4.1,0.7-6.1c0.1-0.6-0.1-0.7-0.6-0.9
			c-1.1-0.3-2-0.2-3.1,0.1c-0.4,0.1-0.5,0.2-0.4,0.6c0.5,2.1,0.6,4.2,0.7,6.4c0,0.3,0.1,0.8-0.4,0.8c-0.5,0-0.4-0.4-0.4-0.7
			c-0.2-2.1-0.3-4.2-0.7-6.3c-0.1-0.5-0.3-0.7-0.8-0.8c-0.9-0.1-1.7-0.4-2.2-1.3c-0.2-0.4-0.3-0.8,0-1.3c0.4-0.5,0.8-0.7,1.4-0.6
			c0.9,0.2,1.5,0.7,1.7,1.6C70.8,30.6,71.3,30.6,72.1,30.4z"/>
		<path class="st4" d="M73.3,44.5c-1.6,0-3.2,0-4.8,0c-0.9,0-1.4-0.4-1.4-1c0-0.7,0.5-1.1,1.3-1.1c3.3,0,6.5,0,9.8,0
			c0.9,0,1.4,0.4,1.3,1.1c-0.1,0.8-0.6,1-1.3,1C76.5,44.5,74.9,44.5,73.3,44.5z"/>
		<path class="st4" d="M73.3,41.8c-1.6,0-3.2,0-4.8,0c-0.9,0-1.4-0.4-1.4-1c0-0.7,0.5-1.1,1.4-1.1c3.2,0,6.4,0,9.6,0
			c0.9,0,1.4,0.4,1.4,1.1c0,0.7-0.5,1-1.5,1C76.4,41.8,74.9,41.8,73.3,41.8z"/>
		<path class="st4" d="M50.8,38.8c0,0.3-0.2,0.5-0.3,0.7c-1.2,1.3-2.4,2.5-3.6,3.8c-0.4,0.5-0.9,0.7-1.5,0.2c-0.6-0.5-0.3-1,0.1-1.5
			c1.2-1.2,2.4-2.5,3.5-3.8c0.3-0.3,0.7-0.5,1.1-0.3C50.5,38.1,50.8,38.4,50.8,38.8z"/>
		<path class="st4" d="M22,40.4c-0.4,0-0.7-0.2-0.9-0.6c-0.9-1.5-1.8-3-2.7-4.4c-0.3-0.5-0.3-1,0.3-1.4c0.6-0.4,1-0.1,1.3,0.4
			c1,1.5,1.9,3.1,2.8,4.7C23.1,39.7,22.7,40.4,22,40.4z"/>
		<path class="st4" d="M37.7,33.4c-0.3,1.8-0.6,3.6-0.9,5.4c-0.1,0.6-0.5,0.9-1.1,0.8c-0.6-0.1-0.8-0.6-0.7-1.2
			c0.3-1.7,0.6-3.5,0.9-5.2c0.1-0.6,0.5-0.9,1.1-0.8C37.5,32.4,37.7,32.8,37.7,33.4z"/>
		<path class="st4" d="M53.3,53.4c-0.1,0-0.3,0-0.4,0c-0.8,0.1-1.3-0.2-1.3-0.8c0-0.7,0.5-0.9,1.1-1c1.7-0.1,3.3-0.3,5-0.5
			c0.7-0.1,1.2,0.2,1.2,0.8c0,0.6-0.4,0.9-1,1C56.4,53.1,54.9,53.3,53.3,53.4C53.3,53.4,53.3,53.4,53.3,53.4z"/>
		<path class="st4" d="M10.8,49.4c0,0-0.2,0-0.3-0.1c-1.4-0.7-2.8-1.4-4.2-2.1c-0.6-0.3-0.7-0.8-0.4-1.3c0.3-0.5,0.7-0.7,1.3-0.4
			c1.4,0.7,2.8,1.4,4.2,2.1c0.4,0.2,0.6,0.6,0.5,1C11.7,49.2,11.4,49.4,10.8,49.4z"/>
		<path class="st4" d="M7.2,66.8c-0.5,0-0.8-0.3-0.9-0.7c-0.1-0.4,0-0.8,0.4-1c1.6-0.7,3.1-1.4,4.7-2c0.4-0.2,0.7,0.1,1,0.5
			c0.3,0.4,0.2,0.8-0.1,1C10.7,65.5,8.9,66.1,7.2,66.8z"/>
		<path class="st5" d="M55.2,31.9c-0.7,0-1.5,0-2.2,0c-0.6,0-1-0.3-1-0.9c0-0.6,0.4-0.9,0.9-0.9c1.5,0,3,0,4.5,0
			c0.5,0,0.9,0.3,0.9,0.9c0,0.6-0.3,0.9-1,0.9C56.6,31.9,55.9,31.9,55.2,31.9z"/>
		<path class="st5" d="M91.1,31.9c-0.7,0-1.4,0-2,0c-0.6,0-0.9-0.3-1-0.9c0-0.6,0.3-0.9,0.9-0.9c1.5,0,2.9,0,4.4,0
			c0.6,0,0.9,0.4,0.9,0.9c0,0.5-0.4,0.9-0.9,0.9C92.6,31.9,91.9,31.9,91.1,31.9z"/>
		<path class="st5" d="M72.3,11.9c0-0.7,0-1.4,0-2c0-0.6,0.3-0.9,0.9-1c0.6,0,1,0.3,1,0.9c0,1.4,0,2.7,0,4.1c0,0.6-0.4,1-1,0.9
			c-0.6,0-0.9-0.4-0.9-1C72.4,13.1,72.3,12.5,72.3,11.9z"/>
		<path class="st3" d="M58.5,16.5c0.3,0,0.6,0.1,0.8,0.3c0.8,0.8,1.6,1.6,2.5,2.5c0.4,0.4,0.6,0.9,0.1,1.4c-0.5,0.5-1,0.4-1.4,0
			c-0.9-0.8-1.7-1.7-2.6-2.6c-0.3-0.3-0.4-0.7-0.2-1.1C57.9,16.7,58.1,16.5,58.5,16.5z"/>
		<path class="st3" d="M84.1,18.9c0-0.5,0.2-0.7,0.5-1c0.8-0.8,1.6-1.6,2.4-2.4c0.4-0.4,0.9-0.5,1.4-0.1c0.5,0.4,0.4,0.9,0,1.3
			c-0.9,0.9-1.8,1.8-2.6,2.6c-0.3,0.3-0.7,0.4-1.1,0.2C84.3,19.5,84,19.3,84.1,18.9z"/>
		<path class="st4" d="M79.4,45.8c-0.2-0.4-0.5-0.6-1-0.6c-3.4,0-6.7,0-10.1,0c-0.5,0-1,0.1-1.1,0.7c-0.2,0.5,0,0.9,0.5,1.2
			c0.2,0.1,0.5,0.2,0.7,0.2c3.3,0,6.6,0,9.8,0c0.4,0,0.7,0,1-0.4l0,0l0,0C79.6,46.6,79.6,46.2,79.4,45.8z"/>
		<path class="st4" d="M74.3,51.4c1.9-0.3,2.8-1.2,2.8-2.8c0-0.5-0.1-0.6-0.6-0.6c-2.2,0-4.4,0-6.6,0c-0.6,0-0.6,0.3-0.6,0.7
			c0.2,1.6,1.2,2.5,3.1,2.7"/>
		<g>
			<g>
				<path class="st6" d="M45.5,51.4c-0.7-0.2-1-0.6-1-1.4c-0.1-3.8-4-6.4-7.5-5c-1,0.4-1.6,0.2-2.3-0.5c-2-2.1-4.9-2.3-7.2-0.5
					c-0.5,0.4-1,0.5-1.6,0.3c-3.4-1.1-7,1.5-7.1,5c0,0.8-0.3,1.1-1,1.3c-3.1,0.8-4.8,3.6-4.1,6.7c0.6,2.8,3.6,4.7,6.5,4.1
					c0.6-0.1,1,0,1.2,0.6c1.4,2.7,4.8,3.9,7.7,2.3c0.4-0.2,0.8-0.3,1.2,0c0.4,0.3,0.4,0.7,0.3,1.2c-0.3,0.9-0.4,1.9-0.1,2.8
					c1.2,4.4,6.2,5.7,9.4,2.6c0.5-0.5,0.9-0.6,1.5-0.4c0.6,0.2,1.3,0.3,1.9,0.3c4.4-0.2,6.8-5,4.4-8.6c-0.5-0.7-0.3-1.2,0.2-1.7
					c1-1,1.5-2.3,1.5-3.7C49.2,54.2,47.8,52.2,45.5,51.4z"/>
				<path class="st4" d="M49.7,60.9c2.6-3.5,1.4-8.7-2.5-10.7c-0.7-0.4-1-0.8-1.2-1.6c-1-4.4-5-6.7-9.4-5.5
					c-0.4,0.1-0.6,0.1-0.9-0.2c-2.6-2.3-6.1-2.5-9-0.7c-0.3,0.2-0.5,0.2-0.8,0.2c-4-1-8.1,1.7-8.9,5.7c-0.1,0.6-0.3,0.9-0.9,1.1
					c-2.7,1.2-4.2,3.3-4.5,6.2c-0.4,4.5,3.3,8.3,7.9,8c0.3,0,0.5,0,0.7,0.3c1.6,2.2,3.8,3.3,6.6,3.1c0.7,0,0.8,0.2,0.8,0.8
					c0,3.5-0.2,8.8-0.2,12.4h1.9c0-3,0-6-0.1-8.9v0v0c0.3-0.1,0.4,0,0.5,0.2c2.6,3.6,7.2,4.2,10.7,1.4c0.3-0.2,0.6-0.3,1-0.3
					c2.8,0.6,5.2-0.2,7.1-2.4c2-2.4,2.3-5.1,1-8C49.4,61.5,49.5,61.2,49.7,60.9z M47.7,60.4c-0.5,0.5-0.6,1-0.2,1.7
					c2.4,3.7,0,8.4-4.4,8.6c-0.7,0-1.3-0.1-1.9-0.3c-0.6-0.2-1-0.1-1.5,0.4c-3.2,3.2-8.2,1.8-9.4-2.6c-0.2-0.9-0.2-1.9,0.1-2.8
					c0.2-0.5,0.1-0.9-0.3-1.2c-0.4-0.3-0.8-0.2-1.2,0c-2.8,1.7-6.3,0.5-7.7-2.3c-0.3-0.5-0.6-0.7-1.2-0.6c-3,0.6-5.9-1.3-6.5-4.1
					c-0.7-3.1,1-5.9,4.1-6.7c0.7-0.2,1-0.5,1-1.3c0.1-3.5,3.7-6.1,7.1-5c0.6,0.2,1.1,0.1,1.6-0.3c2.3-1.7,5.2-1.5,7.2,0.5
					c0.7,0.7,1.3,0.9,2.3,0.5c3.5-1.4,7.4,1.2,7.5,5c0,0.8,0.3,1.2,1,1.4c2.4,0.8,3.8,2.8,3.8,5.2C49.3,58.1,48.8,59.3,47.7,60.4z"
					/>
			</g>
		</g>
		<path class="st7" d="M77.9,29c0.2,0,0.5,0.1,0.5,0.3c0.1,0.4-0.9,1.1-1.5,1.1c-0.1,0-0.3,0-0.3-0.2C76.6,29.9,77.5,29.1,77.9,29z"
			/>
		<path class="st8" d="M69.9,30.5c-0.7,0.1-1.2-0.2-1.6-0.7c-0.2-0.2-0.3-0.4-0.1-0.6c0.2-0.2,0.4-0.2,0.6-0.1
			C69.4,29.4,69.7,29.8,69.9,30.5z"/>
		<path class="st9" d="M73.2,28.8c0.4,0.1,0.9,0.1,0.9,0.5c0,0.4-0.5,0.6-0.9,0.6c-0.3,0-0.8-0.2-0.8-0.6
			C72.4,29,72.9,28.8,73.2,28.8z"/>
		<path class="st10" d="M37.5,62.2c-0.3-0.3-0.7-0.7-1-1c-0.2-0.2-0.4-0.4,0-0.7c0.3-0.2,0.3-0.5,0.1-0.8c-0.1-0.2-0.2-0.4-0.3-0.6
			c-0.1-0.6-0.4-1.1-1.1-1.1c0.3-0.4-0.2-1.1,0.3-1.4c-0.1-0.1-0.2-0.1-0.2-0.3c0.4,0,0.7-0.1,0.8-0.6c0.1-0.4,0.3-0.8,0.5-1.2
			c0.1-0.2,0.3-0.4,0-0.6c-0.5-0.4-0.3-0.7,0.1-1c0.4-0.2,0.6-1.3,1.3-0.4c0.1,0.2,0.3,0.2,0.4,0c0.4-0.3,1-0.4,1.5-0.6
			c0.2-0.1,0.3-0.1,0.3-0.3c0-0.2-0.2-0.6,0.3-0.7c0.5,0,1,0,1.4,0c0,0,0.1,0.1,0.1,0.1c0,1.4,1.4,0.9,1.9,1.5
			c0.1,0.2,0.3,0.1,0.4,0c0.7-0.9,0.9,0.1,1.2,0.3c0.4,0.2,0.7,0.6,0.1,1c-0.2,0.1-0.1,0.3,0,0.5c0.2,0.4,0.4,0.9,0.6,1.3
			c0.1,0.2,0.1,0.4,0.3,0.5c0.2,0.1,0.6-0.1,0.7,0.3c0.1,0.4,0,0.9,0,1.4c0,0.2-0.1,0.2-0.3,0.3c-0.3,0.1-0.6-0.1-0.7,0.3
			c-0.2,0.6-0.5,1.2-0.7,1.8c0,0.1,0.2,0.3,0.4,0.5c-0.5,0.4-0.7,1.2-1.6,1c-0.2-0.1-0.3-0.2-0.5-0.1c-0.2,0.2-0.4,0.3-0.7,0.4
			c-0.7,0.2-1.2,0.4-1.3,1.2c-0.1-0.2-0.1-0.2-0.2-0.1c-0.5,0.1-1,0.1-1.5,0c0-0.5-0.1-0.8-0.7-0.9c-0.3-0.1-0.7-0.2-1-0.4
			c-0.5-0.4-0.7-0.1-0.9,0.4C37.7,62.3,37.6,62.3,37.5,62.2z"/>
		<path class="st11" d="M37.5,62.2c0.1,0,0.1,0,0.2,0c0.3,0.2,0.6,0.3,0.9,0.5c0.3,0.2,0.6,0.3,0.2,0.8c-0.2,0.2,0.7,1.4,1,1.3
			c0.5-0.2,0.5,0.1,0.6,0.4c0.1,0.4,0.4,0.8-0.1,1.1c-0.6,0.4-0.7,1.2-0.2,1.7c0.4,0.4-0.1,0.7-0.3,1.1c-0.1,0.2-0.2,0.6-0.6,0.3
			c-0.5-0.3-1.5,0.5-1.4,1c0.1,0.6-0.4,0.5-0.7,0.6c-0.3,0.1-0.6,0.4-0.9-0.2c-0.2-0.6-1.3-0.7-1.7-0.2c-0.5,0.6-0.7-0.1-1-0.2
			c-0.2-0.1-0.7-0.1-0.4-0.6c0.3-0.5-0.4-1.5-1-1.4c-0.7,0.1-0.5-0.4-0.6-0.7c-0.1-0.3-0.4-0.7,0.2-0.9c0.5-0.2,0.6-1.4,0.2-1.6
			c-0.6-0.4,0-0.7,0.1-1c0.1-0.3,0.2-0.7,0.7-0.5c0.5,0.2,1.4-0.4,1.3-1c-0.1-0.5,0.3-0.6,0.6-0.6c0.4-0.1,0.8-0.5,1.1,0.2
			c0.2,0.6,0.8,0.4,1.2,0.5C37.4,62.9,37.5,62.6,37.5,62.2z"/>
		<path class="st12" d="M28,55.3c0,0,0.1,0.1,0.2,0.1c0.7,0.4,1.3,0.2,1.6-0.6c0.2-0.5,0.7-0.2,1.1-0.2c0.2,0,0.5,0,0.4,0.4
			c-0.1,0.5,1.1,1.1,1.4,0.7c0.5-0.5,0.6,0,0.8,0.2c0.2,0.2,0.8,0.4,0.3,0.9c-0.3,0.3,0,1.4,0.5,1.5c0.6,0.1,0.5,0.4,0.4,0.7
			c-0.1,0.3,0.2,0.9-0.6,0.9c-0.4,0-0.8,1.1-0.6,1.5c0.4,0.7-0.4,0.7-0.6,1.1c-0.1,0.3-0.3,0.3-0.6,0c-0.4-0.4-1.4,0-1.5,0.6
			c-0.1,0.3-0.2,0.3-1,0.3c-0.2,0-0.7,0.1-0.5-0.4c0.2-0.4-0.2-0.5-0.4-0.5c-0.4,0-0.7-0.7-1.1-0.3c-0.4,0.5-0.6,0.1-0.7-0.1
			c-0.2-0.3-0.9-0.4-0.4-1c0.3-0.4,0-1.4-0.5-1.5c-0.6-0.1-0.5-0.4-0.4-0.7c0.1-0.4-0.1-0.9,0.6-0.9c0.3,0,0.8-1.1,0.7-1.4
			C27.1,56.2,27.6,55.3,28,55.3z"/>
		<path class="st13" d="M20.6,53.7c0.5-0.6,0.1-2.1-0.6-2.2c-0.6-0.1-0.3-0.5-0.4-0.8c0-0.3-0.2-0.6,0.3-0.7c0.6-0.1,1.1-1.5,0.8-2
			c-0.3-0.6,0.4-0.6,0.5-1c0.1-0.3,0.3-0.4,0.7-0.1c0.3,0.3,1.9-0.3,1.9-0.8c0-0.6,0.4-0.5,0.7-0.4c0.3,0,0.8-0.3,0.9,0.4
			c0,0.4,1.6,1,1.9,0.7c0.5-0.4,0.6,0.1,0.8,0.3c0.2,0.2,0.7,0.3,0.4,0.8c-0.3,0.4,0.3,1.9,0.7,2c0.6,0.1,0.4,0.5,0.4,0.8
			c0,0.3,0.1,0.7-0.5,0.8c-0.5,0.1-0.9,1.5-0.6,1.9c0.4,0.5-0.1,0.6-0.3,0.8c-0.2,0.2-0.4,0.8-0.8,0.3c-0.2-0.3-0.4-0.2-0.6,0
			c-0.4,0.4-1.3,0.2-1.4,1.1c0,0.3-1.3,0.1-1.4-0.2c-0.3-0.6-1.5-1.1-2.1-0.7c-0.2,0.2-0.3,0.1-0.5-0.1C21.1,54.2,20.8,54,20.6,53.7
			z"/>
		<path class="st14" d="M35.9,46.7c0,0.4,0.6,1.1,1,1c0.6-0.1,0.5,0.4,0.6,0.7c0.2,0.3,0.2,0.5-0.2,0.7c-0.4,0.2-0.4,1.1,0,1.3
			c0.5,0.3,0.1,0.5,0,0.7c-0.1,0.2-0.1,0.7-0.6,0.6c-0.5-0.1-1.2,0.4-1.1,0.9c0.2,0.5-0.2,0.4-0.4,0.5c-0.3,0.1-0.6,0.4-0.9,0.1
			c-0.5-0.5-1-0.6-1.4-0.1c-0.4,0.4-0.7,0-1-0.1c-0.2-0.1-0.5-0.2-0.2-0.6c0.1-0.3-0.6-1.2-0.9-1.1c-0.8,0.3-0.6-0.4-0.8-0.7
			c-0.2-0.3-0.1-0.5,0.3-0.6c0.3-0.1,0.3-1.2,0-1.3c-0.6-0.2-0.3-0.5-0.1-0.8c0.1-0.2,0.1-0.8,0.7-0.5c0.3,0.2,1.1-0.6,0.9-1
			c-0.2-0.5,0.3-0.4,0.4-0.5c0.2-0.1,0.5-0.3,0.8-0.1c0.5,0.5,1,0.6,1.5,0.1c0.4-0.4,0.6,0,0.9,0.1C35.9,46.2,36.2,46.3,35.9,46.7z"
			/>
		<path class="st11" d="M19.7,53.5c0.1,0.4,0.3,0.7,0.6,0.8c0.7,0.3,0.8,0.6,0.3,1.1c-0.3,0.3-0.3,0.7-0.1,1.1
			c0.3,0.6,0.1,1-0.6,1.1c-0.4,0-0.7,0.3-0.9,0.7c-0.3,0.7-0.6,0.8-1.2,0.3c-0.3-0.3-0.7-0.3-1.1-0.1c-0.6,0.3-0.9,0.1-1-0.6
			c0-0.4-0.3-0.8-0.8-0.9c-0.5-0.1-0.7-0.8-0.4-1.1c0.4-0.4,0.6-0.8,0.1-1.2c-0.3-0.2-0.1-0.4,0.1-0.6c0.1-0.2,0.2-0.5,0.5-0.4
			c0.6,0.2,0.9-0.3,1-0.7c0.2-0.5,0.7-0.6,1.1-0.3c0.4,0.3,0.8,0.6,1.3,0.1c0.3-0.3,0.5,0,0.7,0.1C19.7,52.9,20,53,19.7,53.5z"/>
		<path class="st15" d="M47.4,65c0,0.2-0.1,0.3-0.2,0.4c-0.3,0.4-0.3,0.8,0,1.1c0.4,0.6,0.2,1-0.5,1.1c-0.4,0.1-0.7,0.4-0.8,0.8
			c-0.1,0.6-0.5,0.9-1.1,0.5c-0.4-0.3-0.8-0.2-1.1,0c-0.6,0.3-1,0.2-1.1-0.5c-0.1-0.4-0.4-0.7-0.8-0.8c-0.7-0.1-0.9-0.5-0.5-1.1
			c0.2-0.3,0.2-0.8,0-1.1c-0.4-0.7-0.3-0.9,0.4-1.1c0.4-0.1,0.6-0.4,0.7-0.7c0.2-0.8,0.4-0.9,1.1-0.5c0.3,0.2,0.7,0.2,1,0
			c0.6-0.4,0.9-0.3,1.1,0.4c0.1,0.4,0.4,0.8,0.8,0.7C47.4,64.2,47.1,64.8,47.4,65z"/>
		<path class="st16" d="M40.3,50.5c-0.6-0.5-1.1-0.6-1.6-0.8c-0.2-0.1-0.5-1-0.6-1.4c-0.1-0.5,0.7-0.9,0.5-1.6
			c0-0.1,0.3-0.1,0.4-0.1c1-0.6,1.9-0.1,2.8,0.1c0.1,0,0.1,0.3,0.1,0.3c0.7,1,0.3,1.9-0.2,2.8C41.5,50.1,40.6,49.8,40.3,50.5z"/>
		<path class="st17" d="M23.8,61c-0.5-0.7-1.3,0.4-1.6-0.2c-0.3-0.6-1.3-0.8-1.1-1.1c0.4-0.6-0.5-1.4,0.1-1.6
			c0.6-0.3,0.7-1.3,1.1-1.1c0.7,0.3,1.4-0.5,1.6,0.1c0.3,0.6,1.3,0.7,1.1,1.1c-0.4,0.6,0.5,1.4-0.1,1.6C24.4,60.1,24.4,60.9,23.8,61
			z"/>
		<path class="st18" d="M31.3,45c-0.5,0.3,0,1-0.3,1.1c-0.4,0.2-0.7,0.8-0.9,0.7c-0.4-0.2-1.1,0.1-1.2-0.2c-0.2-0.4-0.8-0.8-0.7-0.9
			c0.4-0.4-0.1-1,0.3-1.2c0.4-0.2,0.6-0.7,0.9-0.6c0.4,0.1,1.1,0.1,1.1,0.2C30.7,44.3,31.1,44.6,31.3,45z"/>
		<path class="st19" d="M44.5,61.8c0.7,0,1-0.7,1.6-1c-0.1,0.7-0.7,0.9-1.1,1.4C44.8,62.2,44.6,62,44.5,61.8z"/>
		<path class="st20" d="M40.3,63.1c0.3,0,0.6,0,0.8,0c0.4,0,0.7-0.1,0.8-0.5c0,0.2,0,0.4,0,0.7C41.4,63.2,40.8,63.5,40.3,63.1z"/>
		<path class="st21" d="M35.3,56.3c0,0.2,0.5,0.1,0.1,0.5c-0.3,0.2,0.1,0.9-0.2,1.2C35.2,57.5,34.9,56.9,35.3,56.3z"/>
		<path class="st22" d="M44.7,57.2c0,1.9-1.6,3.5-3.5,3.5c-1.9,0-3.5-1.6-3.5-3.5c0-1.9,1.6-3.5,3.5-3.5
			C43.2,53.7,44.7,55.3,44.7,57.2z"/>
		<path class="st23" d="M36.1,68.4c-1,0-1.9-0.9-1.9-1.9c0-1,0.9-1.9,1.9-1.9c1.1,0,1.9,0.8,1.9,1.9C38,67.6,37.2,68.4,36.1,68.4z"
			/>
		<path class="st24" d="M30.4,60.8c-1,0-1.8-0.9-1.8-1.8c0-1,0.9-1.8,1.9-1.8c0.9,0,1.8,0.9,1.8,1.8C32.2,59.9,31.4,60.8,30.4,60.8z
			"/>
		<path class="st24" d="M24.5,53.8c-1.8,0-3.2-1.5-3.2-3.3c0-1.7,1.6-3.2,3.3-3.2c1.7,0,3.2,1.6,3.2,3.3
			C27.8,52.5,26.3,53.9,24.5,53.8z"/>
		<path class="st24" d="M33.9,51.1c-0.9,0-1.6-0.7-1.6-1.6c0-0.9,0.7-1.6,1.6-1.6c0.9,0,1.6,0.7,1.6,1.5
			C35.5,50.3,34.8,51.1,33.9,51.1z"/>
		<path class="st23" d="M19,55.7c0,0.6-0.6,1.2-1.2,1.2c-0.7,0-1.3-0.6-1.3-1.2c0-0.6,0.7-1.3,1.3-1.3C18.5,54.4,19,55,19,55.7z"/>
		<path class="st25" d="M45.7,65.9c0,0.6-0.7,1.4-1.3,1.4c-0.7,0-1.4-0.6-1.4-1.3c0-0.8,0.6-1.4,1.3-1.4
			C45,64.6,45.6,65.2,45.7,65.9z"/>
		<path class="st25" d="M41.7,48.2c0,0.7-0.8,1.4-1.5,1.4c-0.8,0-1.4-0.7-1.4-1.5c0-0.8,0.7-1.4,1.5-1.4
			C41.1,46.8,41.7,47.5,41.7,48.2z"/>
		<path class="st26" d="M24.6,59c0,0.8-0.7,1.4-1.5,1.4c-0.8,0-1.5-0.6-1.5-1.4c0-0.8,0.7-1.5,1.5-1.5C23.9,57.5,24.6,58.2,24.6,59z
			"/>
		<path class="st27" d="M30.5,45.2c-0.1,0.4-0.4,0.7-0.8,0.7c-0.4,0-0.6-0.2-0.6-0.7c0-0.4,0.2-0.6,0.6-0.6
			C30.1,44.6,30.3,44.9,30.5,45.2z"/>
		<path class="st28" d="M37.2,66.4c0,0.7-0.3,1.1-0.8,1.1c-0.6,0-1-0.4-1-0.9c0-0.5,0.4-0.9,0.9-0.9C36.8,65.6,37.1,66,37.2,66.4z"
			/>
		<path class="st29" d="M26.7,50.6c0,1.2-0.9,2.1-2.1,2.1c-1.2,0-2.1-0.9-2.1-2.1c0-1.2,0.9-2.1,2.1-2.1
			C25.8,48.5,26.7,49.4,26.7,50.6z"/>
		<rect x="13.4" y="78.9" class="st4" width="2" height="32.2"/>
		
			<rect x="42.4" y="80.3" transform="matrix(6.538598e-11 -1 1 6.538598e-11 -66.7042 153.494)" class="st4" width="2" height="59.7"/>
		<rect x="72.2" y="49.1" class="st4" width="2" height="62"/>
		
			<rect x="20.4" y="72" transform="matrix(2.149753e-11 -1 1 2.149753e-11 -58.4989 101.268)" class="st4" width="2" height="15.8"/>
	</g>
</g>
<g>
	<rect x="0.9" y="8.9" class="st6" width="98.1" height="102.2"/>
	<g>
		<g>
			<path class="st4" d="M73.7,25.8c-0.8-0.5-1.9-0.2-2.4,0.6c-0.5,0.8-0.2,1.9,0.6,2.4c12.5,7.7,19.9,21,19.9,35.6
				c0,3.6-0.5,7.2-1.4,10.7c-0.2,0.9,0.3,1.9,1.2,2.1c0.1,0,0.3,0.1,0.4,0.1c0.8,0,1.5-0.5,1.7-1.3c1-3.8,1.5-7.7,1.5-11.6
				C95.3,48.5,87.2,34.1,73.7,25.8z"/>
			<path class="st4" d="M66,103c-5.1,2.1-10.5,3.2-16,3.2c-11.7,0-23-5-30.9-13.6c-0.6-0.7-1.7-0.8-2.5-0.1
				c-0.7,0.6-0.8,1.8-0.1,2.5c8.6,9.4,20.8,14.8,33.5,14.8c6,0,11.8-1.2,17.3-3.4c0.9-0.4,1.3-1.4,0.9-2.3
				C67.9,103.1,66.9,102.6,66,103z"/>
			<path class="st4" d="M40,23.7c0.9-0.2,1.5-1.2,1.3-2.1c-0.2-0.9-1.2-1.5-2.1-1.3C20,25,6.2,41.4,4.8,61.1c-0.1,1,0.7,1.8,1.6,1.9
				c0,0,0.1,0,0.1,0c0.9,0,1.7-0.7,1.7-1.6C9.6,43.2,22.3,28.1,40,23.7z"/>
		</g>
		<circle class="st30" cx="50" cy="20.8" r="10.5"/>
		<circle class="st31" cx="11.7" cy="85.3" r="10.5"/>
		<circle class="st32" cx="88.3" cy="85.3" r="10.5"/>
	</g>
</g>
</svg>
