<?xml version="1.0" encoding="utf-8"?>
<!-- Generator: Adobe Illustrator 19.0.0, SVG Export Plug-In . SVG Version: 6.00 Build 0)  -->
<svg version="1.1" id="Layer_1" xmlns="http://www.w3.org/2000/svg" xmlns:xlink="http://www.w3.org/1999/xlink" x="0px" y="0px"
	 viewBox="0 0 1350 950" style="enable-background:new 0 0 1350 950;" xml:space="preserve">
<style type="text/css">
	.st0{fill:none;}
	.st1{fill:#161614;}
	.st2{clip-path:url(#XMLID_21_);fill:url(#XMLID_22_);}
	.st3{opacity:3.000000e-002;clip-path:url(#XMLID_21_);}
	.st4{fill:url(#XMLID_23_);}
	.st5{fill:url(#XMLID_24_);}
	.st6{fill:url(#XMLID_25_);}
	.st7{fill:url(#XMLID_26_);}
	.st8{fill:url(#XMLID_27_);}
	.st9{fill:url(#XMLID_28_);}
	.st10{fill:url(#XMLID_29_);}
	.st11{fill:url(#XMLID_30_);}
	.st12{fill:url(#XMLID_31_);}
	.st13{fill:url(#XMLID_32_);}
	.st14{fill:url(#XMLID_33_);}
	.st15{fill:url(#XMLID_34_);}
	.st16{fill:url(#XMLID_35_);}
	.st17{fill:url(#XMLID_36_);}
	.st18{fill:url(#XMLID_37_);}
	.st19{fill:url(#XMLID_38_);}
</style>
<pattern  width="28.8" height="28.8" patternUnits="userSpaceOnUse" id="_x31_0_ppp_40_x25_" viewBox="17.3 -31.7 28.8 28.8" style="overflow:visible;">
	<g>
		<polygon class="st0" points="17.3,-2.9 17.3,-31.7 46.1,-31.7 46.1,-2.9 		"/>
		<path class="st1" d="M46.1,0C47.7,0,49-1.3,49-2.9c0-1.6-1.3-2.9-2.9-2.9c-1.6,0-2.9,1.3-2.9,2.9C43.2-1.3,44.5,0,46.1,0z"/>
		<path class="st1" d="M31.7,0c1.6,0,2.9-1.3,2.9-2.9c0-1.6-1.3-2.9-2.9-2.9c-1.6,0-2.9,1.3-2.9,2.9C28.8-1.3,30.1,0,31.7,0z"/>
		<path class="st1" d="M17.3,0c1.6,0,2.9-1.3,2.9-2.9c0-1.6-1.3-2.9-2.9-2.9c-1.6,0-2.9,1.3-2.9,2.9C14.4-1.3,15.7,0,17.3,0z"/>
		<path class="st1" d="M46.1-14.4c1.6,0,2.9-1.3,2.9-2.9c0-1.6-1.3-2.9-2.9-2.9c-1.6,0-2.9,1.3-2.9,2.9
			C43.2-15.7,44.5-14.4,46.1-14.4z"/>
		<path class="st1" d="M31.7-14.4c1.6,0,2.9-1.3,2.9-2.9c0-1.6-1.3-2.9-2.9-2.9c-1.6,0-2.9,1.3-2.9,2.9
			C28.8-15.7,30.1-14.4,31.7-14.4z"/>
		<path class="st1" d="M17.3-14.4c1.6,0,2.9-1.3,2.9-2.9c0-1.6-1.3-2.9-2.9-2.9c-1.6,0-2.9,1.3-2.9,2.9
			C14.4-15.7,15.7-14.4,17.3-14.4z"/>
		<path class="st1" d="M46.1-28.8c1.6,0,2.9-1.3,2.9-2.9c0-1.6-1.3-2.9-2.9-2.9c-1.6,0-2.9,1.3-2.9,2.9
			C43.2-30.1,44.5-28.8,46.1-28.8z"/>
		<path class="st1" d="M31.7-28.8c1.6,0,2.9-1.3,2.9-2.9c0-1.6-1.3-2.9-2.9-2.9c-1.6,0-2.9,1.3-2.9,2.9
			C28.8-30.1,30.1-28.8,31.7-28.8z"/>
		<path class="st1" d="M17.3-28.8c1.6,0,2.9-1.3,2.9-2.9c0-1.6-1.3-2.9-2.9-2.9c-1.6,0-2.9,1.3-2.9,2.9
			C14.4-30.1,15.7-28.8,17.3-28.8z"/>
		<path class="st1" d="M2.9-28.8c1.6,0,2.9-1.3,2.9-2.9c0-1.6-1.3-2.9-2.9-2.9c-1.6,0-2.9,1.3-2.9,2.9C0-30.1,1.3-28.8,2.9-28.8z"/>
		<path class="st1" d="M2.9-31.7"/>
		<path class="st1" d="M24.5-7.2c1.6,0,2.9-1.3,2.9-2.9c0-1.6-1.3-2.9-2.9-2.9s-2.9,1.3-2.9,2.9C21.6-8.5,22.9-7.2,24.5-7.2z"/>
		<path class="st1" d="M38.9-7.2c1.6,0,2.9-1.3,2.9-2.9c0-1.6-1.3-2.9-2.9-2.9c-1.6,0-2.9,1.3-2.9,2.9C36-8.5,37.3-7.2,38.9-7.2z"/>
		<path class="st1" d="M24.5-21.6c1.6,0,2.9-1.3,2.9-2.9c0-1.6-1.3-2.9-2.9-2.9s-2.9,1.3-2.9,2.9C21.6-22.9,22.9-21.6,24.5-21.6z"/>
		<path class="st1" d="M38.9-21.6c1.6,0,2.9-1.3,2.9-2.9c0-1.6-1.3-2.9-2.9-2.9c-1.6,0-2.9,1.3-2.9,2.9C36-22.9,37.3-21.6,38.9-21.6
			z"/>
		<path class="st1" d="M10.1-21.6c1.6,0,2.9-1.3,2.9-2.9c0-1.6-1.3-2.9-2.9-2.9c-1.6,0-2.9,1.3-2.9,2.9C7.2-22.9,8.5-21.6,10.1-21.6
			z"/>
		<path class="st1" d="M10.1-24.5"/>
	</g>
</pattern>
<g id="XMLID_19_">
	<defs>
		<rect id="XMLID_18_" width="1350" height="950"/>
	</defs>
	<clipPath id="XMLID_21_">
		<use xlink:href="#XMLID_18_"  style="overflow:visible;"/>
	</clipPath>
	
		<linearGradient id="XMLID_22_" gradientUnits="userSpaceOnUse" x1="1370.8983" y1="-15907" x2="-37.0099" y2="-15907" gradientTransform="matrix(1 0 0 -1 0 -15432)">
		<stop  offset="0" style="stop-color:#ADA996"/>
		<stop  offset="5.057823e-002" style="stop-color:#C5C2B5"/>
		<stop  offset="0.1055" style="stop-color:#D8D7D0"/>
		<stop  offset="0.1617" style="stop-color:#E7E6E3"/>
		<stop  offset="0.2194" style="stop-color:#EFEFEE"/>
		<stop  offset="0.2809" style="stop-color:#F2F2F2"/>
		<stop  offset="0.6685" style="stop-color:#DBDBDB"/>
		<stop  offset="0.8876" style="stop-color:#EAEAEA"/>
		<stop  offset="1" style="stop-color:#ADA996"/>
	</linearGradient>
	<rect id="XMLID_2_" x="0" class="st2" width="1350" height="950"/>
	<g class="st3">
		<g>
			<pattern  id="XMLID_23_" xlink:href="#_x31_0_ppp_40_x25_" patternTransform="matrix(1 0 0 1 -9,7734 20,8853)">
			</pattern>
			<rect id="XMLID_17_" x="-135" y="-81.2" class="st4" width="404.4" height="280.4"/>
			<pattern  id="XMLID_24_" xlink:href="#_x31_0_ppp_40_x25_" patternTransform="matrix(1 0 0 1 -9,7734 20,8853)">
			</pattern>
			<rect id="XMLID_16_" x="270.2" y="-81.2" class="st5" width="404.4" height="280.4"/>
			<pattern  id="XMLID_25_" xlink:href="#_x31_0_ppp_40_x25_" patternTransform="matrix(1 0 0 1 -9,7734 20,8853)">
			</pattern>
			<rect id="XMLID_15_" x="675.4" y="-81.2" class="st6" width="404.4" height="280.4"/>
			<pattern  id="XMLID_26_" xlink:href="#_x31_0_ppp_40_x25_" patternTransform="matrix(1 0 0 1 -9,7734 20,8853)">
			</pattern>
			<rect id="XMLID_14_" x="1080.6" y="-81.2" class="st7" width="404.4" height="280.4"/>
		</g>
		<g>
			<pattern  id="XMLID_27_" xlink:href="#_x31_0_ppp_40_x25_" patternTransform="matrix(1 0 0 1 -9,7734 39,0236)">
			</pattern>
			<rect id="XMLID_13_" x="-135" y="196.1" class="st8" width="404.4" height="280.4"/>
			<pattern  id="XMLID_28_" xlink:href="#_x31_0_ppp_40_x25_" patternTransform="matrix(1 0 0 1 -9,7734 39,0236)">
			</pattern>
			<rect id="XMLID_12_" x="270.2" y="196.1" class="st9" width="404.4" height="280.4"/>
			<pattern  id="XMLID_29_" xlink:href="#_x31_0_ppp_40_x25_" patternTransform="matrix(1 0 0 1 -9,7734 39,0236)">
			</pattern>
			<rect id="XMLID_11_" x="675.4" y="196.1" class="st10" width="404.4" height="280.4"/>
			<pattern  id="XMLID_30_" xlink:href="#_x31_0_ppp_40_x25_" patternTransform="matrix(1 0 0 1 -9,7734 39,0236)">
			</pattern>
			<rect id="XMLID_10_" x="1080.6" y="196.1" class="st11" width="404.4" height="280.4"/>
		</g>
		<g>
			<pattern  id="XMLID_31_" xlink:href="#_x31_0_ppp_40_x25_" patternTransform="matrix(1 0 0 1 -9,7734 57,1619)">
			</pattern>
			<rect id="XMLID_9_" x="-135" y="473.5" class="st12" width="404.4" height="280.4"/>
			<pattern  id="XMLID_32_" xlink:href="#_x31_0_ppp_40_x25_" patternTransform="matrix(1 0 0 1 -9,7734 57,1619)">
			</pattern>
			<rect id="XMLID_8_" x="270.2" y="473.5" class="st13" width="404.4" height="280.4"/>
			<pattern  id="XMLID_33_" xlink:href="#_x31_0_ppp_40_x25_" patternTransform="matrix(1 0 0 1 -9,7734 57,1619)">
			</pattern>
			<rect id="XMLID_7_" x="675.4" y="473.5" class="st14" width="404.4" height="280.4"/>
			<pattern  id="XMLID_34_" xlink:href="#_x31_0_ppp_40_x25_" patternTransform="matrix(1 0 0 1 -9,7734 57,1619)">
			</pattern>
			<rect id="XMLID_6_" x="1080.6" y="473.5" class="st15" width="404.4" height="280.4"/>
		</g>
		<g>
			<pattern  id="XMLID_35_" xlink:href="#_x31_0_ppp_40_x25_" patternTransform="matrix(1 0 0 1 -9,7734 75,3003)">
			</pattern>
			<rect id="XMLID_5_" x="-135" y="750.8" class="st16" width="404.4" height="280.4"/>
			<pattern  id="XMLID_36_" xlink:href="#_x31_0_ppp_40_x25_" patternTransform="matrix(1 0 0 1 -9,7734 75,3003)">
			</pattern>
			<rect id="XMLID_4_" x="270.2" y="750.8" class="st17" width="404.4" height="280.4"/>
			<pattern  id="XMLID_37_" xlink:href="#_x31_0_ppp_40_x25_" patternTransform="matrix(1 0 0 1 -9,7734 75,3003)">
			</pattern>
			<rect id="XMLID_3_" x="675.4" y="750.8" class="st18" width="404.4" height="280.4"/>
			<pattern  id="XMLID_38_" xlink:href="#_x31_0_ppp_40_x25_" patternTransform="matrix(1 0 0 1 -9,7734 75,3003)">
			</pattern>
			<rect id="XMLID_1_" x="1080.6" y="750.8" class="st19" width="404.4" height="280.4"/>
		</g>
	</g>
</g>
</svg>
