<?xml version="1.0" encoding="utf-8"?>
<!-- Generator: Adobe Illustrator 21.0.2, SVG Export Plug-In . SVG Version: 6.00 Build 0)  -->
<svg version="1.1" id="Слой_1" xmlns="http://www.w3.org/2000/svg" xmlns:xlink="http://www.w3.org/1999/xlink" x="0px" y="0px"
	 viewBox="0 0 226 171" style="enable-background:new 0 0 226 171;" xml:space="preserve">
<style type="text/css">
	.st0{fill:#EFEFEF;}
	.st1{fill:#E0E0E0;}
	.st2{opacity:0.68;}
	.st3{fill:#142A8B;}
	.st4{fill:#F33052;}
</style>
<g>
	<g>
		<path class="st0" d="M218.7,7.3v156.5H7.3V7.3L218.7,7.3 M225.7-0.2H0.3v171.4h225.4V-0.2L225.7-0.2z"/>
		<path class="st1" d="M215.1,11v149H10.9V11L215.1,11 M216.9,9.1H9.1v152.7h207.8V9.1L216.9,9.1z"/>
	</g>
	<g class="st2">
		<rect x="45.8" y="119.8" class="st3" width="134.3" height="4.9"/>
		<g>
			<path class="st4" d="M49.9,81.5L91.7,60v6.2L56.5,83.8v0.2l35.2,17.6v6.2L49.9,86.4L49.9,81.5z"/>
			<path class="st4" d="M97.5,111.5l25.1-65.2h6.1l-25.2,65.2H97.5z"/>
			<path class="st4" d="M176.1,86.5l-41.8,21.4v-6.2l35.4-17.6v-0.2l-35.4-17.6V60l41.8,21.4V86.5z"/>
		</g>
	</g>
</g>
</svg>
