<?xml version="1.0" encoding="utf-8"?>
<!-- Generator: Adobe Illustrator 21.0.2, SVG Export Plug-In . SVG Version: 6.00 Build 0)  -->
<svg version="1.1" id="Слой_1" xmlns="http://www.w3.org/2000/svg" xmlns:xlink="http://www.w3.org/1999/xlink" x="0px" y="0px"
	 viewBox="0 0 256 214" style="enable-background:new 0 0 256 214;" xml:space="preserve">
<style type="text/css">
	.st0{display:none;}
	.st1{display:inline;}
	.st2{fill:#EFEFEF;}
	.st3{fill:#E0E0E0;}
	.st4{display:inline;opacity:0.68;}
	.st5{fill:#142A8B;}
	.st6{fill:#F33052;}
	.st7{opacity:0.76;}
	.st8{fill:none;}
	.st9{fill:#EBF0F3;}
	.st10{fill:#3EA69B;}
	.st11{fill:#31978C;}
	.st12{fill:#D5D6DB;}
	.st13{fill:#44C4A1;}
	.st14{fill:#2F4859;}
	.st15{fill:#64798A;}
	.st16{fill:#DC8744;}
	.st17{fill:#FFFFFF;}
	.st18{fill:#E56353;}
	.st19{fill:#27A2DB;}
</style>
<g class="st0">
	<g class="st1">
		<path class="st2" d="M217.8,7.8v156.5H6.5V7.8L217.8,7.8 M224.9,0.3H-0.6v171.4h225.4V0.3L224.9,0.3z"/>
		<path class="st3" d="M214.3,11.5v149H10v-149L214.3,11.5 M216.1,9.6H8.3v152.7h207.8V9.6L216.1,9.6z"/>
	</g>
	<g class="st4">
		<rect x="45" y="120.3" class="st5" width="134.3" height="4.9"/>
		<g>
			<path class="st6" d="M49,82l41.8-21.5v6.2L55.7,84.3v0.2l35.2,17.6v6.2L49,86.9L49,82z"/>
			<path class="st6" d="M96.7,112l25.1-65.2h6.1L102.6,112H96.7z"/>
			<path class="st6" d="M175.3,87l-41.8,21.4v-6.2l35.4-17.6v-0.2l-35.4-17.6v-6.2l41.8,21.4V87z"/>
		</g>
	</g>
</g>
<g>
	<g class="st7">
		<rect x="24.9" y="30.7" class="st8" width="194.4" height="152.7"/>
		<g>
			<g>
				<rect x="59.8" y="171.4" class="st9" width="3.8" height="2.5"/>
				<rect x="91.3" y="171.4" class="st9" width="3.8" height="2.5"/>
			</g>
			<path class="st10" d="M101.5,139.3c0-0.7-0.6-1.3-1.3-1.3H56.7c-0.7,0-1.3,0.6-1.3,1.3V166h46L101.5,139.3L101.5,139.3z"/>
			<path class="st11" d="M55.5,165.2v5.6c0,0.8,0.6,1.4,1.3,1.4h43.5c0.7,0,1.3-0.6,1.3-1.4v-5.6H55.5z"/>
			<rect x="58" y="140.5" class="st12" width="41" height="28.4"/>
			<path class="st13" d="M104.4,172.1v3.1c0,1.3-1.2,2.4-2.7,2.4H55.2c-1.5,0-2.7-1.1-2.7-2.4v-3.1H104.4z"/>
			<g>
				<path class="st9" d="M83.4,175.9h-9.9c-0.4,0-0.8-0.4-0.8-0.8v-0.6c0-0.4,0.4-0.8,0.8-0.8h9.9c0.4,0,0.8,0.4,0.8,0.8v0.6
					C84.2,175.6,83.9,175.9,83.4,175.9z"/>
				<circle class="st9" cx="77.9" cy="139.2" r="0.9"/>
			</g>
			<g>
				<circle class="st12" cx="77.9" cy="139.2" r="0.6"/>
				<path class="st12" d="M81.1,175.9h-5.2c-0.4,0-0.8-0.4-0.8-0.8v-0.6c0-0.4,0.4-0.8,0.8-0.8h5.2c0.4,0,0.8,0.4,0.8,0.8v0.6
					C81.8,175.6,81.5,175.9,81.1,175.9z"/>
			</g>
			<rect x="127.5" y="172.2" class="st14" width="13.1" height="4.2"/>
			<path class="st15" d="M157.5,139c0-0.7-0.6-1.3-1.3-1.3h-44.3c-0.7,0-1.3,0.6-1.3,1.3v27.2h46.9V139z"/>
			<rect x="113.2" y="140.2" class="st12" width="41.8" height="26"/>
			<path class="st15" d="M110.6,166.2v5.1c0,0.7,0.6,1.3,1.3,1.3h44.3c0.7,0,1.3-0.6,1.3-1.3v-5.1H110.6z"/>
			<circle class="st12" cx="134" cy="169.4" r="1.8"/>
			<path class="st16" d="M189,180h-21.4c-1.4,0-2.5-1.1-2.5-2.5v-37.9c0-1.4,1.1-2.5,2.5-2.5h21.4c1.5,0,2.7,1.2,2.7,2.7v37.4
				C191.8,178.7,190.5,180,189,180z"/>
			<path class="st12" d="M186.7,141.4h-16.4c-1.2,0-2.2,1-2.2,2.2v30.3c0,1.2,1,2.2,2.2,2.2h16.4c1.2,0,2.2-1,2.2-2.2v-30.3
				C188.9,142.4,187.9,141.4,186.7,141.4z"/>
			<path class="st17" d="M180.8,140H175c-0.1,0-0.2-0.1-0.2-0.2v-0.2c0-0.1,0.1-0.2,0.2-0.2h5.8c0.1,0,0.2,0.1,0.2,0.2v0.2
				C181,139.9,180.9,140,180.8,140z"/>
			<path class="st5" d="M127.8,132.1C127.8,132.1,127.8,132.1,127.8,132.1c-1.4,0-2.5-1.1-2.5-2.5l0.1-25c0-1.4,1.1-2.5,2.5-2.5
				c0,0,0,0,0,0c1.4,0,2.5,1.1,2.5,2.5l-0.1,25C130.3,130.9,129.2,132.1,127.8,132.1z"/>
			<g>
				<g>
					<path class="st5" d="M158.9,74.6H95.6c-0.9,0-1.6-0.7-1.6-1.6s0.7-1.6,1.6-1.6h63.4c0.9,0,1.6,0.7,1.6,1.6
						C160.6,73.9,159.8,74.6,158.9,74.6z"/>
					<path class="st5" d="M127.8,59c-15,0-25.1-6.6-25.2-6.7l1.8-2.7c0.2,0.1,21.2,13.9,47.6-0.1l1.5,2.9
						C144.2,57.4,135.4,59,127.8,59z"/>
					<path class="st5" d="M151.9,95.9c-24.1-16.5-46.5-0.7-47.4,0l-1.9-2.6c0.2-0.2,25.1-17.8,51.2,0L151.9,95.9z"/>
					<path class="st5" d="M121,104.5c-24.2-39,0-64.6,0.2-64.8l2.3,2.3l-1.2-1.1l1.2,1.1c-0.9,1-22.6,24.1,0.2,60.9L121,104.5z"/>
					<rect x="126.2" y="39.9" class="st5" width="3.2" height="64.6"/>
					<path class="st5" d="M133.9,104.5l-2.8-1.7c22.8-36.8,1.1-59.9,0.2-60.9l2.3-2.3C133.9,39.9,158.1,65.5,133.9,104.5z"/>
					<path class="st5" d="M127.8,106.2c-18.5,0-33.6-15.2-33.6-33.9s15.1-33.9,33.6-33.9s33.6,15.2,33.6,33.9
						S146.3,106.2,127.8,106.2z M127.8,41.5c-16.7,0-30.4,13.8-30.4,30.7s13.6,30.7,30.4,30.7s30.4-13.8,30.4-30.7
						S144.5,41.5,127.8,41.5z"/>
				</g>
			</g>
			<circle class="st18" cx="127.3" cy="72.9" r="5.6"/>
			<circle class="st15" cx="159.2" cy="72.9" r="5.6"/>
			<circle class="st13" cx="95.8" cy="72.1" r="5.6"/>
			<circle class="st19" cx="127.9" cy="39.7" r="5.6"/>
			<circle class="st16" cx="127.9" cy="104.5" r="5.6"/>
			<path class="st5" d="M181,132.1c-1.4,0-2.5-1.1-2.5-2.5v-10H81.1c-1.9,0-3.5,1.6-3.5,3.5v6.5c0,1.4-1.1,2.5-2.5,2.5
				c-1.4,0-2.5-1.1-2.5-2.5V123c0-4.7,3.8-8.5,8.5-8.5h102.4v15C183.5,130.9,182.4,132.1,181,132.1z"/>
		</g>
	</g>
	<g>
		<path class="st2" d="M248.1,9.8v194.5H7.9V9.8L248.1,9.8 M256.1,0.5H-0.1v213h256.2V0.5L256.1,0.5z"/>
		<path class="st3" d="M244.1,14.4v185.2H11.9V14.4L244.1,14.4 M246.1,12.1H9.9v189.8h236.2V12.1L246.1,12.1z"/>
	</g>
</g>
</svg>
