<?xml version="1.0" encoding="utf-8"?>
<!-- Generator: Adobe Illustrator 21.0.2, SVG Export Plug-In . SVG Version: 6.00 Build 0)  -->
<svg version="1.1" id="Слой_1" xmlns="http://www.w3.org/2000/svg" xmlns:xlink="http://www.w3.org/1999/xlink" x="0px" y="0px"
	 viewBox="0 0 120 160" style="enable-background:new 0 0 120 160;" xml:space="preserve">
<style type="text/css">
	.st0{fill:#CD2200;}
	.st1{fill:#F1A29D;}
	.st2{fill:#7EC9BD;}
	.st3{fill:none;}
	.st4{fill:none;stroke:#142A8B;stroke-width:1.9514;stroke-miterlimit:10;}
	.st5{fill:#EDEDED;}
	.st6{fill:#FF9D00;}
	.st7{fill:none;stroke:#CD2200;stroke-width:0.9757;stroke-miterlimit:10;}
	.st8{fill:none;stroke:#142A8B;stroke-width:0.4878;stroke-miterlimit:10;}
</style>
<g>
	
		<ellipse transform="matrix(5.402682e-02 -0.9985 0.9985 5.402682e-02 19.8655 47.9503)" class="st0" cx="35.2" cy="13.5" rx="4.6" ry="4.6"/>
	<circle class="st1" cx="53.1" cy="29.5" r="7.6"/>
	<circle class="st2" cx="26.7" cy="33.6" r="7.4"/>
	<g>
		<rect x="10.9" y="48.9" class="st3" width="98.1" height="102.2"/>
		<g>
			<path class="st4" d="M88.2,149.4H31.8c-4,0-7.3-3.2-7.3-7.3V57.9c0-4,3.2-7.3,7.3-7.3h56.3c4,0,7.3,3.2,7.3,7.3v84.2
				C95.4,146.2,92.2,149.4,88.2,149.4z"/>
			<rect x="37.6" y="72" class="st5" width="44.9" height="58.3"/>
			<circle class="st6" cx="60" cy="91.3" r="12.8"/>
			<g>
				<line class="st7" x1="53.4" y1="113.5" x2="66.6" y2="113.5"/>
				<line class="st7" x1="43.3" y1="118.7" x2="76.7" y2="118.7"/>
				<line class="st7" x1="47.2" y1="123.8" x2="72.8" y2="123.8"/>
			</g>
			<path class="st8" d="M72,142.1H50.7c-0.8,0-1.5-0.7-1.5-1.5v-2.4c0-0.8,0.7-1.5,1.5-1.5H72c0.8,0,1.5,0.7,1.5,1.5v2.4
				C73.5,141.4,72.8,142.1,72,142.1z"/>
		</g>
	</g>
</g>
</svg>
